<?xml version="1.0" encoding="UTF-8" standalone="no"?>
<!-- Created with Inkscape (http://www.inkscape.org/) -->

<svg
   xmlns:dc="http://purl.org/dc/elements/1.1/"
   xmlns:cc="http://creativecommons.org/ns#"
   xmlns:rdf="http://www.w3.org/1999/02/22-rdf-syntax-ns#"
   xmlns:svg="http://www.w3.org/2000/svg"
   xmlns="http://www.w3.org/2000/svg"
   xmlns:xlink="http://www.w3.org/1999/xlink"
   xmlns:sodipodi="http://sodipodi.sourceforge.net/DTD/sodipodi-0.dtd"
   xmlns:inkscape="http://www.inkscape.org/namespaces/inkscape"
   width="512"
   height="512"
   viewBox="0 0 135.46496 135.46496"
   version="1.1"
   id="svg8"
   inkscape:version="0.92.2 5c3e80d, 2017-08-06"
   sodipodi:docname="sunrise2.svg"
   inkscape:export-filename="/home/lbob/MEGA/Eclipse-workspace/Sunsite/icons/bitmap.png"
   inkscape:export-xdpi="96"
   inkscape:export-ydpi="96">
  <defs
     id="defs2">
    <linearGradient
       inkscape:collect="always"
       id="linearGradient2244">
      <stop
         style="stop-color:#ff3c20;stop-opacity:1"
         offset="0"
         id="stop2240" />
      <stop
         style="stop-color:#ff7f2a;stop-opacity:1"
         offset="1"
         id="stop2242" />
    </linearGradient>
    <linearGradient
       inkscape:collect="always"
       id="linearGradient1306">
      <stop
         style="stop-color:#ff6600;stop-opacity:1"
         offset="0"
         id="stop1302" />
      <stop
         style="stop-color:#ffd42a;stop-opacity:1"
         offset="1"
         id="stop1304" />
    </linearGradient>
    <linearGradient
       inkscape:collect="always"
       id="linearGradient1435">
      <stop
         style="stop-color:#ff6600;stop-opacity:1"
         offset="0"
         id="stop1431" />
      <stop
         style="stop-color:#ffd42a;stop-opacity:1"
         offset="1"
         id="stop1433" />
    </linearGradient>
    <clipPath
       clipPathUnits="userSpaceOnUse"
       id="clipPath999">
      <rect
         style="opacity:1;fill:#ff6600;fill-opacity:1;stroke:none;stroke-width:6;stroke-miterlimit:4;stroke-dasharray:none;stroke-opacity:1"
         id="rect1001"
         width="67.73333"
         height="67.73333"
         x="318.24823"
         y="65.4356"
         ry="2.6458333"
         rx="2.6458333" />
    </clipPath>
    <clipPath
       clipPathUnits="userSpaceOnUse"
       id="clipPath1282">
      <rect
         style="opacity:1;fill:#000000;fill-opacity:1;stroke:none;stroke-width:2;stroke-miterlimit:4;stroke-dasharray:none;stroke-opacity:1"
         id="rect1284"
         width="67.73333"
         height="67.73333"
         x="163.14133"
         y="205.51361"
         rx="2.6458333"
         ry="2.6458333" />
    </clipPath>
    <linearGradient
       gradientTransform="matrix(0,-2.8822334,2.882356,0,-2.8823686,296.99828)"
       gradientUnits="userSpaceOnUse"
       x2="47"
       x1="1"
       id="linearGradient3764"
       xlink:href="#linearGradient1306">
      <stop
         id="stop2675"
         style="stop-color:#ffcc00;stop-opacity:1" />
      <stop
         id="stop2677"
         style="stop-color:#ff2a2a;stop-opacity:0.94901961"
         offset="1" />
    </linearGradient>
    <radialGradient
       inkscape:collect="always"
       xlink:href="#linearGradient1435"
       id="radialGradient2866"
       gradientUnits="userSpaceOnUse"
       gradientTransform="matrix(1.006756,0,0,0.50117097,-33.95238,254.06429)"
       cx="-1.3229065"
       cy="115.20209"
       fx="-1.3229065"
       fy="115.20209"
       r="30.104168" />
    <linearGradient
       gradientUnits="userSpaceOnUse"
       gradientTransform="matrix(0.15446974,0,0,0.21768849,-250.879,182.20604)"
       y2="366.67"
       y1="-100"
       x2="-383.33"
       x1="-383.33"
       id="a">
      <stop
         id="stop1407"
         offset="0"
         stop-color="#ff2a2a" />
      <stop
         id="stop1409"
         offset="1"
         stop-color="#ffa200" />
    </linearGradient>
    <linearGradient
       inkscape:collect="always"
       xlink:href="#linearGradient2244"
       id="linearGradient2246"
       x1="-32.56144"
       y1="302.51117"
       x2="-32.56144"
       y2="331.09988"
       gradientUnits="userSpaceOnUse" />
  </defs>
  <sodipodi:namedview
     id="base"
     pagecolor="#ffffff"
     bordercolor="#666666"
     borderopacity="1.0"
     inkscape:pageopacity="0.0"
     inkscape:pageshadow="2"
     inkscape:zoom="0.51861703"
     inkscape:cx="-265.13828"
     inkscape:cy="258.82424"
     inkscape:document-units="px"
     inkscape:current-layer="layer1"
     showgrid="false"
     inkscape:window-width="1680"
     inkscape:window-height="996"
     inkscape:window-x="0"
     inkscape:window-y="33"
     inkscape:window-maximized="1"
     inkscape:snap-global="false"
     showborder="true"
     inkscape:pagecheckerboard="true"
     units="px"
     scale-x="0.26458" />
  <metadata
     id="metadata5">
    <rdf:RDF>
      <cc:Work
         rdf:about="">
        <dc:format>image/svg+xml</dc:format>
        <dc:type
           rdf:resource="http://purl.org/dc/dcmitype/StillImage" />
        <dc:title></dc:title>
      </cc:Work>
    </rdf:RDF>
  </metadata>
  <g
     inkscape:label="Layer 1"
     inkscape:groupmode="layer"
     id="layer1"
     transform="translate(0,-161.53332)">
    <path
       id="path2682"
       style="opacity:0.05;stroke-width:2.88229465"
       d="m 101.77598,173.06225 c 16.88773,11.70763 27.92427,31.21747 27.92427,53.32131 0,35.81463 -29.02532,64.85025 -64.853013,64.85025 -22.104787,0 -41.615448,-11.03318 -53.323584,-27.92307 2.989009,5.25141 6.646715,10.08493 10.898194,14.3218 11.774419,10.69886 27.42273,17.20406 44.587161,17.20406 36.614562,0 66.294192,-29.68125 66.294192,-66.29137 0,-17.16082 -6.5026,-32.81134 -17.20479,-44.58526 -4.23418,-4.2513 -9.07077,-7.90886 -14.32243,-10.89772 z m 14.32243,10.89772 c 11.1086,11.85462 17.92538,27.77608 17.92538,45.30582 0,36.61302 -29.67963,66.29136 -66.294195,66.29136 -17.527604,0 -33.452616,-6.81359 -45.307748,-17.92461 11.990598,11.94399 28.486319,19.36574 46.74893,19.36574 36.614573,0 66.294183,-29.68123 66.294183,-66.29137 0,-18.25895 -7.42206,-34.75973 -19.36655,-46.74694 z"
       inkscape:connector-curvature="0" />
    <path
       id="path2684"
       style="opacity:0.1;stroke-width:2.88229465"
       d="m 116.1013,183.95997 c 10.6993,11.77392 17.20478,27.42156 17.20478,44.58526 0,36.61302 -29.67962,66.29137 -66.294188,66.29137 -17.161545,0 -32.812742,-6.50232 -44.587171,-17.20406 11.855132,11.10814 27.77727,17.92461 45.307758,17.92461 36.614571,0 66.294191,-29.68122 66.294191,-66.29136 0,-17.52686 -6.81389,-33.4512 -17.92537,-45.30582 z"
       inkscape:connector-curvature="0" />
    <path
       id="path2686"
       style="opacity:0.2;stroke-width:2.88229465"
       d="m 87.191269,165.49639 c 24.831501,9.09056 42.514751,32.90644 42.514751,60.90157 0,35.81463 -29.02533,64.85027 -64.853013,64.85027 -27.981911,0 -51.798815,-17.6825 -60.8753569,-42.51295 A 66.294188,66.291366 0 0 0 133.32337,228.55965 66.294188,66.291366 0 0 0 87.20568,165.51079 Z"
       inkscape:connector-curvature="0" />
    <path
       id="path2690"
       style="fill:#f2f2f2;fill-opacity:1;stroke-width:2.88229465"
       d="m 66.294189,161.53332 c 36.614571,0 66.294181,29.67834 66.294181,66.29136 0,36.613 -29.67961,66.29135 -66.294181,66.29135 C 29.679612,294.11603 -2.7272721e-6,264.43768 -2.7272721e-6,227.82468 -2.7272721e-6,191.21166 29.679612,161.53332 66.294189,161.53332 Z"
       inkscape:connector-curvature="0" />
    <path
       id="path2734"
       style="opacity:0.1;stroke-width:2.88229465"
       d="m 112.49835,180.35718 c 10.69931,11.77103 17.20479,27.42156 17.20479,44.58526 0,36.61302 -29.67962,66.29137 -66.294191,66.29137 -17.161545,0 -32.812742,-6.50232 -44.58717,-17.20405 12.042486,12.36767 28.852386,20.08627 47.469526,20.08627 36.614565,0 66.294185,-29.68123 66.294185,-66.29135 0,-18.625 -7.71607,-35.42553 -20.08714,-47.4675 z"
       inkscape:connector-curvature="0" />
    <rect
       style="opacity:0.94690001;fill:url(#a);stroke-width:0"
       x="-333.51981"
       y="156.08406"
       width="197.72063"
       height="156.73454"
       id="rect1414" />
    <path
       style="stroke-width:0.26458001"
       d="m -250.89915,204.04365 c -0.11982,0.005 -0.37522,0.20625 -0.72035,0.63303 -0.27683,0.34234 -0.64806,0.80037 -0.82475,1.01801 l -0.32142,0.39584 -0.185,-0.5612 c -0.10193,-0.30881 -0.24004,-0.56171 -0.30644,-0.56171 -0.0664,0 -0.16867,0.42806 -0.22737,0.95135 -0.10443,0.931 -0.49926,1.63657 -0.91622,1.63657 -0.0933,0 -0.40676,0.126 -0.69658,0.28008 -1.68043,0.89341 -2.48076,1.27137 -3.57183,1.68618 -0.66981,0.25463 -1.38618,0.58106 -1.59214,0.72553 -0.20597,0.14447 -0.67616,0.28039 -1.04488,0.30179 -0.36871,0.0214 -0.84369,0.16118 -1.05522,0.31109 -0.86184,0.61076 -1.33874,0.79003 -2.32076,0.87073 -0.71005,0.0584 -1.68879,0.25735 -3.1207,0.63458 -0.46211,0.12176 -1.49301,-0.35813 -1.38336,-0.64388 0.0492,-0.12824 0.0894,-0.43314 0.0894,-0.67747 0,-0.25905 0.0741,-0.42837 0.17776,-0.40617 0.22243,0.0476 0.57836,-0.60738 0.58136,-1.07021 10e-4,-0.19101 -0.10075,-0.3869 -0.22634,-0.43511 -0.14144,-0.0543 -0.22841,-0.28568 -0.22841,-0.60874 0,-0.87237 -0.3557,-1.48105 -1.17304,-2.00553 -0.99011,-0.63534 -1.61486,-0.63942 -2.37243,-0.015 -0.81315,0.67026 -1.07631,1.25146 -0.97048,2.14506 0.0503,0.42441 0.026,0.7338 -0.0579,0.7338 -0.20958,0 -0.17421,0.7725 0.0558,1.218 0.11464,0.22205 0.30424,0.36199 0.45475,0.33589 0.20555,-0.0356 0.25786,0.0742 0.25786,0.54156 0,0.32257 -0.0855,0.69402 -0.19017,0.82526 -0.27988,0.351 -1.11022,0.46739 -1.34201,0.1881 -0.10385,-0.12518 -0.2983,-0.21228 -0.43201,-0.19378 -0.13372,0.0186 -0.75696,-0.051 -1.38492,-0.15399 -0.62791,-0.10303 -1.62151,-0.26368 -2.20758,-0.35708 -0.58607,-0.0935 -1.33075,-0.30161 -1.65518,-0.4625 -0.32443,-0.16089 -0.72456,-0.25704 -0.88934,-0.21394 -0.16478,0.0431 -0.51597,-0.0417 -0.7803,-0.1881 -0.52024,-0.28823 -1.97765,-0.72265 -3.11709,-0.92913 -0.39187,-0.071 -1.25203,-0.27176 -1.91148,-0.44596 -0.65947,-0.17421 -1.2991,-0.31677 -1.4216,-0.31677 -0.12248,0 -0.34299,-0.14829 -0.48989,-0.3297 -0.17769,-0.21945 -0.438,-0.32969 -0.7772,-0.32969 -0.39832,0 -0.65403,-0.1445 -1.16943,-0.6599 -0.36282,-0.36282 -0.70885,-0.65831 -0.76945,-0.65731 -0.0606,0.001 -0.36162,-0.28942 -0.66868,-0.64647 -0.58686,-0.6823 -0.91006,-0.69715 -0.60513,-0.0279 l 0.17932,0.39428 -0.40101,-0.31574 c -0.44666,-0.35133 -0.74376,-0.29177 -0.53846,0.10801 0.0726,0.14145 0.0991,0.34937 0.0589,0.46198 -0.0402,0.1126 0.22571,0.51365 0.59117,0.89089 l 0.66455,0.68574 -0.6816,-0.11059 c -0.60889,-0.0989 -0.66054,-0.085 -0.48317,0.12867 0.1092,0.13158 0.51875,0.34741 0.91001,0.48007 0.6579,0.22309 1.69492,0.98771 1.70582,1.25779 0.003,0.064 0.29374,0.32869 0.64698,0.58807 0.71463,0.52464 5.15036,2.6489 5.53137,2.6489 0.13354,0 0.43785,0.16407 0.67644,0.36483 0.74559,0.6274 3.95999,2.17106 5.44146,2.61325 1.56155,0.4661 1.68113,0.58083 1.78643,1.70736 0.0369,0.39518 0.17939,1.73634 0.31626,2.98066 0.24432,2.22115 0.23048,5.7826 -0.0258,6.61399 -0.0873,0.28314 -0.0423,0.36909 0.23202,0.44079 0.2972,0.0777 0.32905,0.1601 0.25115,0.64698 -0.0491,0.30684 -0.18837,0.75935 -0.30954,1.00561 -0.33272,0.67627 -0.35598,3.33474 -0.0357,4.0581 0.13784,0.31128 0.25063,0.81425 0.25063,1.11775 0,0.3035 0.13045,1.21356 0.2899,2.02207 0.41187,2.08859 0.50261,3.09518 0.55241,6.11325 0.0411,2.49631 0.34281,5.27918 0.66404,6.12409 0.0841,0.22 0.0862,0.45863 0.005,0.58652 -0.0751,0.11859 -0.13801,0.33283 -0.13901,0.47594 -0.004,0.45481 -0.79361,1.58985 -1.28208,1.84327 -0.53974,0.27998 -2.66118,0.70819 -3.89584,0.78599 -0.46037,0.029 -2.37889,0.0895 -4.26273,0.13436 -2.75062,0.0655 -3.6645,0.14244 -4.64255,0.3917 -0.66978,0.17069 -1.50503,0.31132 -1.85568,0.31212 -0.35062,9.9e-4 -1.08775,0.10635 -1.63864,0.23409 -0.55088,0.12774 -1.58639,0.33424 -2.30112,0.45889 -0.71474,0.12463 -1.7586,0.43669 -2.31921,0.69348 -0.56062,0.2568 -1.46443,0.60393 -2.00864,0.77152 -0.54422,0.16759 -1.24994,0.48236 -1.56836,0.69918 -0.34329,0.23373 -1.11182,0.50962 -1.88823,0.67798 -2.55955,0.55509 -5.75671,2.50567 -10.52894,6.4233 -0.8061,0.66174 -1.63706,1.35811 -1.84637,1.54769 -0.20936,0.18957 -0.62007,0.56107 -0.91311,0.82578 -0.29303,0.26474 -0.8197,0.68187 -1.16995,0.92655 -0.35025,0.24468 -0.6791,0.57781 -0.73069,0.74051 -0.0516,0.16272 -0.48167,0.65064 -0.95601,1.08416 -0.47434,0.43351 -0.97786,1.03629 -1.11877,1.33995 -0.0308,0.0663 -0.0771,0.14275 -0.12351,0.21911 12.08762,16.1847 31.39453,26.66315 53.15009,26.66315 35.31181,0 64.16948,-27.60533 66.17859,-62.41194 -0.38223,-0.12221 -0.63702,0.0199 -0.97306,0.46043 -0.22352,0.29305 -0.4872,0.53278 -0.586,0.53278 -0.0988,0 -0.52334,0.1456 -0.9436,0.32349 -1.03271,0.43716 -1.9058,1.46525 -1.9058,2.24428 0,0.31244 -0.0651,0.63352 -0.1447,0.71312 -0.0796,0.0796 -0.18057,0.79528 -0.22427,1.59058 -0.0437,0.79527 -0.16009,1.78846 -0.25889,2.20708 -0.23329,0.98874 -0.16727,3.74714 0.10852,4.52886 0.27721,0.78454 0.2781,1.8519 0.002,2.08099 -0.11736,0.0974 -0.26007,0.36158 -0.31677,0.58755 -0.12699,0.50595 -0.32054,0.63726 -0.94567,0.64026 -0.32276,0.002 -0.56115,-0.10495 -0.7095,-0.31677 -0.1478,-0.21096 -0.32014,-0.28841 -0.50901,-0.22841 -0.15708,0.0498 -0.68152,0.0999 -1.16581,0.11111 -0.85107,0.0196 -0.89357,0.04 -1.25882,0.61855 -0.20785,0.32925 -0.61197,0.73726 -0.89864,0.9064 -0.47866,0.28241 -1.59368,1.60498 -1.59368,1.8903 0,0.067 -0.12843,0.4001 -0.28525,0.74051 -0.15682,0.34041 -0.4409,1.06445 -0.63148,1.60867 -0.19057,0.54421 -0.4485,1.0722 -0.57309,1.17355 -0.16281,0.13239 -0.20302,0.36073 -0.14262,0.8108 0.0763,0.56893 0.0638,0.60061 -0.13901,0.34829 -0.20806,-0.25889 -0.21667,-0.25186 -0.12247,0.10284 0.0556,0.2093 0.16186,0.44552 0.23616,0.52502 0.22652,0.24247 0.16042,0.99735 -0.0873,0.99735 -0.12231,0 -0.34476,0.13116 -0.49454,0.29145 -0.21486,0.2299 -0.49716,0.29422 -1.33789,0.30592 -0.58615,0.008 -1.78476,0.0377 -2.66388,0.0656 -1.1396,0.0361 -1.74821,-0.0119 -2.11923,-0.16692 -0.39386,-0.16451 -0.60805,-0.17705 -0.8821,-0.0522 -0.19915,0.0908 -0.52315,0.16485 -0.71985,0.16485 -0.21473,0 -0.53552,0.20276 -0.80304,0.50745 -0.58239,0.66332 -1.44422,0.88966 -2.64942,0.69556 -0.77979,-0.12559 -0.97865,-0.10354 -1.542,0.17208 -0.35562,0.17399 -0.96703,0.34168 -1.35856,0.37258 -0.39152,0.0309 -0.85504,0.13296 -1.03041,0.22686 -0.17536,0.0935 -0.37595,0.1355 -0.44545,0.0925 -0.0695,-0.043 -0.56494,-0.006 -1.10069,0.0811 -0.53575,0.0876 -1.19661,0.19147 -1.46863,0.23047 -0.37269,0.0534 -0.84388,0.41637 -1.91252,1.47225 -0.77998,0.77067 -1.72815,1.67476 -2.10682,2.00967 -0.60629,0.53622 -0.71064,0.72371 -0.87487,1.56991 -0.1047,0.53948 -0.31605,1.09067 -0.48162,1.25624 -0.36804,0.36795 -0.44699,0.36935 -0.44699,0.009 0,-0.15722 -0.10959,-0.37687 -0.24391,-0.48834 -0.1343,-0.11146 -0.30219,-0.3543 -0.37258,-0.53949 -0.0926,-0.2436 -0.21446,-0.31396 -0.4408,-0.25476 -0.22032,0.0576 -0.31264,0.009 -0.31264,-0.16433 0,-0.13535 0.10282,-0.24598 0.22841,-0.24598 0.28082,0 0.28976,-0.11278 0.0295,-0.3731 -0.24892,-0.24891 -0.69639,0.0275 -0.60409,0.3731 0.0513,0.19217 0.0292,0.19039 -0.13901,-0.0114 -0.10993,-0.13189 -0.38196,-0.35844 -0.60461,-0.50332 -0.39157,-0.2548 -0.4151,-0.2524 -0.72294,0.078 l -0.31832,0.34158 -0.0165,-0.37103 c -0.0106,-0.24246 -0.0658,-0.15011 -0.15916,0.26613 -0.12611,0.56204 -0.0905,0.74196 0.30178,1.52237 0.50089,0.99561 0.7709,1.97637 0.49867,1.80813 -0.0926,-0.0573 -0.17011,-0.25424 -0.17311,-0.43769 -0.003,-0.18343 -0.0882,-0.44025 -0.19017,-0.57102 -0.2432,-0.31185 -0.71829,-0.48818 -0.71829,-0.26665 0,0.0941 -0.14806,0.0401 -0.32866,-0.11937 -0.32493,-0.28698 -0.32748,-0.28617 -0.24598,0.0398 0.093,0.37204 -0.34804,0.58988 -0.62786,0.31006 -0.0894,-0.0894 -0.21138,-0.11376 -0.27078,-0.0543 -0.0595,0.0594 0.10234,0.30034 0.35966,0.53536 0.51368,0.4691 0.79509,1.08674 0.49506,1.08674 -0.1227,0 -0.15498,0.17061 -0.0982,0.52089 0.0873,0.53816 -0.16992,0.81601 -0.55293,0.59686 -0.0971,-0.0556 -0.12769,-0.0468 -0.0677,0.0196 0.06,0.0664 -0.064,0.25706 -0.27595,0.42374 -0.38517,0.30323 -0.38538,0.30345 -0.63871,-0.009 -0.2527,-0.31141 -0.25431,-0.31147 -0.44854,0.0951 -0.19108,0.39982 -0.19321,0.3966 -0.12661,-0.1633 0.0481,-0.40461 0.01,-0.5705 -0.13229,-0.5705 -0.11006,0 -0.28463,-0.1022 -0.38808,-0.22686 -0.10348,-0.12465 -0.2493,-0.18904 -0.3235,-0.14314 -0.0742,0.0459 -0.13594,-0.10898 -0.13694,-0.34416 -0.002,-0.31573 -0.0385,-0.37066 -0.14056,-0.20929 -0.11802,0.1866 -0.17561,0.18803 -0.39221,0.008 -0.23285,-0.19325 -0.24516,-0.15183 -0.14676,0.50435 0.0914,0.60976 0.0698,0.7152 -0.14728,0.7152 -0.13999,0 -0.21673,0.0612 -0.17053,0.13591 0.1533,0.24802 0.22678,1.23401 0.092,1.23401 -0.0729,0 -0.16125,-0.0847 -0.19585,-0.18861 -0.0448,-0.13433 -0.14249,-0.10918 -0.339,0.0873 -0.2229,0.22294 -0.30398,0.23751 -0.4196,0.0749 -0.0993,-0.13967 -0.11796,-0.0872 -0.0605,0.17105 0.11588,0.52073 -0.16198,0.83743 -0.46715,0.53226 -0.17226,-0.17226 -0.18655,-0.27895 -0.0574,-0.4346 0.13025,-0.15695 0.11568,-0.22778 -0.061,-0.29558 -0.17533,-0.0673 -0.23203,0.0195 -0.23203,0.35398 0,0.2436 -0.0687,0.48521 -0.15244,0.53691 -0.0885,0.0548 -0.15193,-0.0971 -0.15193,-0.36277 0,-0.25119 -0.0687,-0.49916 -0.15244,-0.55086 -0.085,-0.0526 -0.15245,0.0645 -0.15245,0.2651 0,0.40304 -0.25728,0.72449 -0.5798,0.72449 -0.25524,0 -0.11521,-0.764 0.17363,-0.94773 0.11922,-0.0758 0.0943,-0.11376 -0.0749,-0.11576 -0.17914,-0.002 -0.28481,0.18453 -0.36121,0.63665 -0.098,0.58017 -0.12623,0.61267 -0.31161,0.35915 -0.145,-0.19824 -0.16046,-0.3609 -0.0527,-0.56224 0.0893,-0.16686 0.094,-0.2837 0.0108,-0.2837 -0.0777,0 -0.18072,0.10282 -0.22892,0.22841 -0.0482,0.12559 -0.16567,0.22841 -0.26096,0.22841 -0.0955,0 -0.13505,-0.10033 -0.0879,-0.22324 0.0472,-0.12291 0.0207,-0.26417 -0.0594,-0.31367 -0.0801,-0.0495 -0.14573,0.04 -0.14573,0.19843 0,0.30441 -0.45733,0.4082 -0.63045,0.14314 -0.0537,-0.0822 -0.15133,0.0821 -0.21703,0.36535 l -0.11937,0.51521 -0.19017,-0.60874 c -0.13342,-0.42793 -0.19354,-0.50488 -0.20154,-0.25786 -0.006,0.19341 -0.08,0.30966 -0.16381,0.25786 -0.0837,-0.0518 -0.15244,10e-4 -0.15244,0.11782 0,0.11656 -0.10231,0.21187 -0.22789,0.21187 -0.15735,0 -0.22841,-0.1579 -0.22841,-0.50746 0,-0.27909 -0.0763,-0.50745 -0.1695,-0.50745 -0.16767,0 -0.13,0.46163 0.0966,1.17975 0.0595,0.1884 0.0457,0.34261 -0.031,0.34261 -0.23598,0 -0.51085,-0.98497 -0.48265,-1.7301 0.0147,-0.38901 -0.0184,-0.75219 -0.0739,-0.80769 -0.0966,-0.0966 -0.15217,0.51503 -0.11937,1.3198 l 0.0155,0.38085 -0.14935,-0.35243 c -0.0823,-0.19379 -0.21421,-0.31255 -0.29351,-0.26355 -0.0793,0.049 -0.21497,-0.0321 -0.30127,-0.18035 -0.0863,-0.14838 -0.15875,-0.21157 -0.16175,-0.14107 -0.002,0.0705 0.13134,0.30119 0.29765,0.51262 0.32653,0.41516 0.28451,0.6932 -0.0837,0.5519 -0.19541,-0.075 -0.20152,-0.0285 -0.0419,0.32194 0.15269,0.33498 0.14786,0.43371 -0.0258,0.54105 -0.3978,0.24588 -0.4951,-0.025 -0.37671,-1.04902 0.0641,-0.55379 0.13221,-1.24689 0.15141,-1.53994 0.0192,-0.29304 0.10928,-1.01226 0.19998,-1.59833 0.13637,-0.88142 0.24426,-1.13673 0.62425,-1.47793 0.25265,-0.22688 0.50606,-0.59934 0.56326,-0.82733 0.0572,-0.22799 0.26656,-0.65366 0.46508,-0.94618 0.19852,-0.29252 0.3998,-0.70802 0.447,-0.92345 0.0472,-0.21543 0.45702,-1.14554 0.91105,-2.06651 0.45404,-0.92097 0.82573,-1.81122 0.82577,-1.97867 2e-5,-0.16746 0.1403,-0.74975 0.31161,-1.29396 0.18325,-0.58221 0.36839,-1.77329 0.4501,-2.89281 0.0763,-1.04657 0.20583,-2.1765 0.28783,-2.51093 0.1123,-0.4582 0.0892,-0.84726 -0.0946,-1.57869 -0.32802,-1.30587 -0.6905,-1.70283 -1.64897,-1.8071 -0.41586,-0.0453 -0.92756,-0.19576 -1.13687,-0.33435 -0.20934,-0.13862 -0.7916,-0.45429 -1.29396,-0.70175 -0.90539,-0.44603 -0.93731,-0.45032 -3.65348,-0.46302 -3.04162,-0.0143 -6.30623,-0.19184 -6.33803,-0.34468 -0.0394,-0.18941 -0.13533,-1.47083 -0.13333,-1.77351 0.0357,-4.65634 -0.34573,-8.76775 -0.93223,-10.04732 -0.0767,-0.16745 -0.13416,-0.51001 -0.12815,-0.76119 0.10938,-4.30403 0.15131,-4.94984 0.35914,-5.55307 0.12655,-0.36741 0.20517,-0.70827 0.17467,-0.75757 -0.0305,-0.0492 -0.0962,-2.04011 -0.14624,-4.42448 -0.05,-2.38413 -0.13007,-4.65593 -0.17777,-5.04769 -0.0477,-0.39177 -0.008,-1.21382 0.0889,-1.82674 0.0964,-0.61296 0.22185,-1.78952 0.27905,-2.6148 l 0.10387,-1.50066 1.14152,-0.42013 c 1.95311,-0.71934 2.8018,-1.15178 4.59965,-2.34401 0.95688,-0.63454 1.98279,-1.25558 2.27994,-1.37974 0.63208,-0.26413 1.50427,-0.91338 3.22095,-2.39776 0.68238,-0.59004 1.39643,-1.13186 1.58696,-1.20456 0.19053,-0.0727 0.39095,-0.25323 0.44545,-0.40101 0.18515,-0.50222 0.83136,-1.244 1.58128,-1.81588 0.96721,-0.73758 1.00983,-1.13134 0.0625,-0.57619 -0.37676,0.2208 -0.6847,0.35097 -0.6847,0.28887 0,-0.0621 0.30794,-0.44262 0.6847,-0.84542 0.663,-0.70881 0.83931,-1.04953 0.54208,-1.04953 -0.0788,0 -0.18376,0.0649 -0.23306,0.14469 -0.0494,0.0798 -0.31022,0.29971 -0.5798,0.48834 l -0.4904,0.34313 0.57101,-0.64078 c 0.64541,-0.72444 0.67228,-0.79219 0.31626,-0.79219 -0.13996,0 -0.55069,0.30956 -0.91311,0.6878 -0.73887,0.77112 -0.84849,0.72715 -0.27854,-0.11162 0.39411,-0.57999 0.46464,-0.8979 0.31058,-0.89141 z m -19.47815,30.23189 c 0.0443,-0.002 0.0806,0.13712 0.13591,0.45268 0.0587,0.33491 0.1964,0.9513 0.30592,1.36992 0.10954,0.41862 0.31894,1.41167 0.4656,2.20707 0.14665,0.79541 0.35961,1.63114 0.47335,1.85723 0.11369,0.22608 0.2067,0.56374 0.2067,0.75033 0,0.18658 0.064,0.54954 0.14211,0.80666 0.18812,0.61938 0.59877,3.14424 0.68367,4.20383 0.0372,0.46402 0.14886,1.16725 0.24856,1.56319 0.13912,0.55134 0.14012,0.8707 0.004,1.36372 -0.15868,0.5753 -0.1366,0.74812 0.20929,1.62417 0.21286,0.53916 0.38705,0.99505 0.38705,1.01285 0,0.0773 -2.13388,0.66286 -2.95792,0.81182 l -5.2e-4,5.2e-4 c -1.07481,0.19428 -0.99471,0.19041 -1.02111,0.0491 -0.0221,-0.11854 -0.14654,-8.68609 -0.15555,-10.6943 -0.007,-1.67427 0.27008,-4.88104 0.46509,-5.37583 0.0929,-0.23569 0.17331,-0.68106 0.17931,-0.98959 0.006,-0.3085 0.066,-0.69812 0.13384,-0.86557 0.0383,-0.0947 0.068,-0.14658 0.0946,-0.14779 z m 30.34506,31.5894 c -0.0391,0.005 -0.0693,0.041 -0.0941,0.10852 -0.0385,0.10518 -0.13269,0.15272 -0.20929,0.10542 -0.20151,-0.12457 -0.17074,0.0615 0.0512,0.30954 0.16209,0.18116 0.21828,0.1759 0.38085,-0.0362 0.14139,-0.1845 0.14644,-0.29092 0.0191,-0.40978 -0.0606,-0.0566 -0.10866,-0.0825 -0.14779,-0.0775 z m -0.78961,2.21482 c 0.0205,-0.005 0.0318,0.0149 0.03,0.062 -0.0135,0.36548 -0.23167,0.83027 -0.31677,0.67488 -0.0428,-0.0782 0.0126,-0.31313 0.1235,-0.52244 0.0693,-0.13083 0.12922,-0.20665 0.1633,-0.21446 z m 0.58445,0.56947 c 0.0114,7.5e-4 0.0204,0.004 0.0269,0.0109 0.0516,0.0516 -0.0372,0.1898 -0.1974,0.30696 -0.28546,0.20902 -0.28564,0.21903 -0.003,0.53123 0.22447,0.248 0.2393,0.31832 0.0667,0.31832 -0.12183,0 -0.30363,-0.0825 -0.4041,-0.18293 -0.32475,-0.32477 -0.20117,0.11313 0.19791,0.70124 0.20932,0.30844 0.38034,0.58956 0.38034,0.62476 0,0.0352 -0.13514,0.13565 -0.29972,0.22375 -0.25548,0.13673 -0.33563,0.0898 -0.5488,-0.32245 -0.32561,-0.62965 -0.20096,-1.37928 0.31471,-1.89496 0.19243,-0.19244 0.38653,-0.32197 0.46663,-0.31677 z m -3.07264,2.26133 c -0.0313,0.0115 -0.0502,0.092 -0.045,0.21239 0.007,0.1774 0.0434,0.21342 0.092,0.092 0.044,-0.10989 0.0382,-0.24085 -0.0124,-0.29145 -0.0126,-0.0126 -0.0242,-0.0167 -0.0346,-0.0129 z m -11.72162,1.06556 c -0.0312,0.0115 -0.0507,0.092 -0.0455,0.21239 0.007,0.1774 0.0434,0.21342 0.092,0.092 0.044,-0.10989 0.0387,-0.24085 -0.0119,-0.29145 -0.0126,-0.0127 -0.0242,-0.0168 -0.0346,-0.0129 z m 4.96604,1.18906 c -0.0837,0 -0.15192,0.0687 -0.15192,0.15244 0,0.0837 0.0682,0.15245 0.15192,0.15245 0.0837,0 0.15245,-0.0687 0.15245,-0.15245 0,-0.0837 -0.0687,-0.15244 -0.15245,-0.15244 z m -0.91311,0.30489 c -0.0837,0 -0.15244,0.0682 -0.15244,0.15192 0,0.0837 0.0687,0.15245 0.15244,0.15245 0.0837,0 0.15193,-0.0687 0.15193,-0.15245 0,-0.0837 -0.0682,-0.15192 -0.15193,-0.15192 z m 4.32992,0.30437 c 0.13053,0 0.23719,0.0682 0.23719,0.15192 0,0.0837 -0.0643,0.15245 -0.14314,0.15245 -0.0788,0 -0.18549,-0.0687 -0.23719,-0.15245 -0.0517,-0.0837 0.0126,-0.15192 0.14314,-0.15192 z m -5.71224,1.51255 c 0.0735,-0.008 0.13365,0.1151 0.22995,0.42839 0.0606,0.19706 0.0406,0.34209 -0.047,0.34209 -0.17896,0 -0.3937,-0.59072 -0.26251,-0.72191 0.0293,-0.0293 0.0551,-0.046 0.0796,-0.0486 z"
       id="path1416"
       inkscape:connector-curvature="0" />
    <path
       style="opacity:0.84070997;stroke:#000000;stroke-width:0.04480662px"
       inkscape:connector-curvature="0"
       d="m -186.54,209.88002 c 1.02922,-0.76961 2.15837,-0.58414 3.18422,-0.40579 0.96443,0.16215 2.02574,0.35427 2.99373,-0.37009 0.58763,-0.508 1.15039,-1.08288 1.76271,-1.5307 0.74807,-0.54753 1.52734,-1.15984 2.34987,-1.27496 0.25339,-0.0404 0.55826,0.17846 0.13872,0.26826 -1.52438,0.7904 -2.62916,2.59426 -3.82107,4.08247 -0.27297,0.42732 -0.59004,0.70716 -0.94291,0.4338 -1.30689,-0.48169 -2.45927,-1.63614 -3.92795,-1.4527 -0.40616,0.0265 -0.80441,0.29702 -1.20757,0.25254 -0.17732,0.007 -0.35417,0.007 -0.52969,-0.003 z"
       id="path1418" />
    <path
       style="opacity:0.84070997;stroke:#000000;stroke-width:0.03045845px"
       inkscape:connector-curvature="0"
       d="m -162.95269,207.85334 c 0.6869,-0.39746 1.44053,-0.12049 2.12513,0.13796 0.64367,0.23915 1.35201,0.5118 1.99811,0.13762 0.39219,-0.27439 0.76781,-0.5984 1.17646,-0.82792 0.49926,-0.28069 1.01937,-0.60211 1.56835,-0.57361 0.16912,0.005 0.37261,0.19701 0.0926,0.20398 -1.01739,0.34671 -1.75475,1.45032 -2.55023,2.32394 -0.18218,0.25996 -0.3938,0.412 -0.62933,0.1763 -0.87224,-0.50545 -1.64135,-1.45638 -2.62159,-1.5226 -0.27109,-0.0351 -0.53689,0.0998 -0.80597,0.016 -0.11835,-0.0185 -0.23638,-0.0415 -0.35353,-0.0717 z"
       id="path1420" />
    <g
       id="g2256"
       transform="matrix(2.0629324,0,0,2.0629324,138.29071,-427.6816)">
      <path
         inkscape:export-ydpi="135.74899"
         inkscape:export-xdpi="135.74899"
         inkscape:export-filename="/home/lbob/MEGA/Eclipse-workspace/Sunsite/icons/sunsite.png"
         inkscape:connector-curvature="0"
         id="path2880"
         d="m -34.515947,298.01948 a 23.121877,23.120894 0 0 0 -23.121879,23.12089 23.121877,23.120894 0 0 0 0.680684,5.46495 h 44.879514 a 23.121877,23.120894 0 0 0 0.68355,-5.46495 23.121877,23.120894 0 0 0 -23.121869,-23.12089 z"
         style="opacity:1;fill:#b1b1b1;fill-opacity:1;stroke:#b0b0b0;stroke-width:1.58887112;stroke-miterlimit:4;stroke-dasharray:none;stroke-opacity:1" />
      <path
         style="opacity:1;fill:url(#radialGradient2866);fill-opacity:1;stroke:url(#linearGradient2246);stroke-width:1.58887112;stroke-miterlimit:4;stroke-dasharray:none;stroke-opacity:1"
         d="m -35.284227,297.50732 a 23.121877,23.120894 0 0 0 -23.121878,23.12089 23.121877,23.120894 0 0 0 0.680684,5.46494 h 44.879514 a 23.121877,23.120894 0 0 0 0.683554,-5.46494 23.121877,23.120894 0 0 0 -23.121874,-23.12089 z"
         id="path2858"
         inkscape:connector-curvature="0"
         inkscape:export-filename="/home/lbob/MEGA/Eclipse-workspace/Sunsite/icons/sunsite.png"
         inkscape:export-xdpi="135.74899"
         inkscape:export-ydpi="135.74899" />
      <rect
         inkscape:export-ydpi="135.74899"
         inkscape:export-xdpi="135.74899"
         inkscape:export-filename="/home/lbob/MEGA/Eclipse-workspace/Sunsite/icons/sunsite.png"
         ry="2.1018994"
         rx="1.8517519"
         y="328.70724"
         x="-58.104126"
         height="2.5222795"
         width="46.66415"
         id="rect2878"
         style="opacity:1;fill:#000000;fill-opacity:0.23921569;stroke:none;stroke-width:1.49129963;stroke-miterlimit:4;stroke-dasharray:none;stroke-opacity:1" />
      <rect
         style="opacity:1;fill:#0066ff;fill-opacity:1;stroke:none;stroke-width:1.49129963;stroke-miterlimit:4;stroke-dasharray:none;stroke-opacity:1"
         id="rect2860"
         width="46.66415"
         height="2.5222795"
         x="-58.616302"
         y="328.19507"
         rx="1.8517519"
         ry="2.1018994"
         inkscape:export-filename="/home/lbob/MEGA/Eclipse-workspace/Sunsite/icons/sunsite.png"
         inkscape:export-xdpi="135.74899"
         inkscape:export-ydpi="135.74899" />
      <rect
         inkscape:export-ydpi="135.74899"
         inkscape:export-xdpi="135.74899"
         inkscape:export-filename="/home/lbob/MEGA/Eclipse-workspace/Sunsite/icons/sunsite.png"
         style="opacity:1;fill:#b0b0b0;fill-opacity:1;stroke:none;stroke-width:1.34284127;stroke-miterlimit:4;stroke-dasharray:none;stroke-opacity:1"
         id="rect2884"
         width="37.835796"
         height="2.5222795"
         x="-53.689941"
         y="332.49063"
         rx="1.5014205"
         ry="2.1018994" />
      <rect
         ry="2.1018994"
         rx="1.5014205"
         y="331.97849"
         x="-54.202118"
         height="2.5222795"
         width="37.835796"
         id="rect2862"
         style="opacity:1;fill:#2a7fff;fill-opacity:1;stroke:none;stroke-width:1.34284127;stroke-miterlimit:4;stroke-dasharray:none;stroke-opacity:1"
         inkscape:export-filename="/home/lbob/MEGA/Eclipse-workspace/Sunsite/icons/sunsite.png"
         inkscape:export-xdpi="135.74899"
         inkscape:export-ydpi="135.74899" />
      <rect
         inkscape:export-ydpi="135.74899"
         inkscape:export-xdpi="135.74899"
         inkscape:export-filename="/home/lbob/MEGA/Eclipse-workspace/Sunsite/icons/sunsite.png"
         ry="2.1018994"
         rx="1.1010417"
         y="336.27405"
         x="-48.64518"
         height="2.5222795"
         width="27.74625"
         id="rect2886"
         style="opacity:1;fill:#b0b0b0;fill-opacity:1;stroke:none;stroke-width:1.14994061;stroke-miterlimit:4;stroke-dasharray:none;stroke-opacity:1" />
      <rect
         style="opacity:1;fill:#5599ff;fill-opacity:1;stroke:none;stroke-width:1.14994061;stroke-miterlimit:4;stroke-dasharray:none;stroke-opacity:1"
         id="rect2864"
         width="27.74625"
         height="2.5222795"
         x="-49.157356"
         y="335.76187"
         rx="1.1010417"
         ry="2.1018994"
         inkscape:export-filename="/home/lbob/MEGA/Eclipse-workspace/Sunsite/icons/sunsite.png"
         inkscape:export-xdpi="135.74899"
         inkscape:export-ydpi="135.74899" />
    </g>
    <path
       id="path1447"
       d="m 72.303481,210.42204 c 1.02922,-0.76961 2.15837,-0.58414 3.18422,-0.40579 0.96443,0.16215 2.02574,0.35427 2.99373,-0.37009 0.58763,-0.508 1.15039,-1.08288 1.76271,-1.5307 0.74807,-0.54753 1.52734,-1.15984 2.34987,-1.27496 0.25339,-0.0404 0.55826,0.17846 0.13872,0.26826 -1.52438,0.7904 -2.62916,2.59426 -3.82107,4.08247 -0.27297,0.42732 -0.59004,0.70716 -0.94291,0.4338 -1.30689,-0.48169 -2.45927,-1.63614 -3.92795,-1.4527 -0.40616,0.0265 -0.80441,0.29702 -1.20757,0.25254 -0.17732,0.007 -0.35417,0.007 -0.52969,-0.003 z"
       inkscape:connector-curvature="0"
       style="opacity:0.84070997;stroke:#000000;stroke-width:0.04480662px" />
    <path
       id="path1449"
       d="m 86.150794,201.90203 c 0.6869,-0.39746 1.44053,-0.12049 2.12513,0.13796 0.64367,0.23915 1.35201,0.5118 1.99811,0.13762 0.39219,-0.27439 0.76781,-0.5984 1.17646,-0.82792 0.49926,-0.28069 1.01937,-0.60211 1.56835,-0.57361 0.16912,0.005 0.37261,0.19701 0.0926,0.20398 -1.01739,0.34671 -1.75475,1.45032 -2.55023,2.32394 -0.18218,0.25996 -0.3938,0.412 -0.62933,0.1763 -0.87224,-0.50545 -1.64135,-1.45638 -2.62159,-1.5226 -0.27109,-0.0351 -0.53689,0.0998 -0.80597,0.016 -0.11835,-0.0185 -0.23638,-0.0415 -0.35353,-0.0717 z"
       inkscape:connector-curvature="0"
       style="opacity:0.84070997;stroke:#000000;stroke-width:0.03045845px" />
  </g>
</svg>
